<?xml version="1.0" standalone="no"?>
<!DOCTYPE svg PUBLIC "-//W3C//DTD SVG 20010904//EN"
 "http://www.w3.org/TR/2001/REC-SVG-20010904/DTD/svg10.dtd">
<svg version="1.0" xmlns="http://www.w3.org/2000/svg"
 width="600.000000pt" height="338.000000pt" viewBox="0 0 600.000000 338.000000"
 preserveAspectRatio="xMidYMid meet">

<g transform="translate(0.000000,338.000000) scale(0.100000,-0.100000)"
fill="#000000" stroke="none">
<path d="M0 1690 l0 -1690 3000 0 3000 0 0 875 c0 830 -1 875 -17 866 -10 -6
-34 -17 -53 -25 -19 -8 -56 -24 -82 -35 -26 -12 -54 -21 -62 -21 -9 0 -16 -4
-16 -10 0 -5 -16 -12 -35 -16 -19 -3 -35 -10 -35 -15 0 -5 -8 -9 -17 -9 -10 0
-31 -7 -47 -15 -15 -8 -36 -15 -46 -15 -10 0 -23 -7 -30 -15 -7 -8 -18 -15
-24 -15 -6 -1 -29 -9 -51 -20 -22 -11 -50 -19 -63 -20 -13 0 -32 -9 -43 -19
l-21 -19 39 -40 c21 -21 48 -42 61 -46 12 -4 22 -12 22 -17 0 -5 32 -9 70 -9
39 0 70 4 70 9 0 5 14 11 30 15 17 3 37 11 45 18 47 41 85 80 85 88 0 29 108
-26 117 -60 3 -11 11 -16 22 -13 20 5 71 -33 71 -53 0 -8 -7 -17 -15 -20 -8
-4 -13 -10 -10 -15 7 -11 -103 -119 -121 -119 -8 0 -14 -4 -14 -9 0 -5 -13
-12 -30 -16 -16 -4 -30 -10 -30 -15 0 -5 -20 -12 -45 -16 -25 -3 -48 -10 -51
-15 -3 -5 -51 -9 -108 -9 -77 0 -111 4 -137 17 -19 10 -43 16 -55 15 -11 -2
-27 4 -34 12 -7 9 -20 16 -30 16 -20 0 -50 30 -50 50 0 7 -3 10 -6 7 -11 -10
-65 26 -60 40 3 7 2 13 -3 13 -29 0 -101 113 -101 158 0 11 -6 22 -12 25 -21
6 -16 293 5 332 9 17 17 35 17 41 0 7 7 15 16 18 8 3 12 10 9 16 -3 5 -1 10 5
10 6 0 8 4 5 10 -11 18 58 106 75 95 6 -4 10 1 10 9 0 24 36 56 70 63 17 3 30
10 30 15 0 5 4 7 8 4 5 -3 19 4 31 15 15 14 32 20 51 17 17 -3 26 0 23 5 -3 6
45 8 126 5 83 -2 135 -8 139 -15 4 -6 20 -15 35 -18 15 -4 27 -11 27 -16 0 -5
5 -9 11 -9 14 0 119 -111 114 -121 -3 -4 3 -6 12 -5 11 1 28 -21 50 -64 18
-35 33 -70 33 -77 0 -6 5 -15 10 -18 7 -4 10 262 10 789 l0 796 -3000 0 -3000
0 0 -1690z m2221 433 c8 -6 28 -14 46 -17 17 -4 37 -14 44 -22 6 -8 17 -14 23
-14 6 0 24 -15 40 -34 18 -22 34 -32 43 -29 11 4 14 1 11 -8 -2 -7 10 -28 29
-45 18 -17 33 -36 33 -41 0 -6 7 -16 15 -23 8 -7 15 -19 15 -27 0 -8 7 -30 16
-49 9 -19 14 -47 12 -64 -3 -16 0 -30 5 -30 13 0 2 -226 -11 -243 -5 -7 -13
-26 -16 -44 -4 -17 -18 -43 -32 -58 -13 -14 -24 -31 -24 -36 0 -17 -108 -121
-119 -115 -5 4 -12 2 -16 -4 -4 -6 -11 -7 -17 -4 -7 5 -9 1 -5 -9 5 -12 -1
-19 -18 -23 -13 -3 -29 -2 -36 2 -9 5 -10 2 -6 -11 6 -14 3 -17 -18 -13 -13 3
-22 1 -19 -3 3 -5 -6 -9 -20 -9 -14 0 -28 -4 -31 -10 -8 -12 -222 -14 -229 -1
-3 4 -24 11 -46 15 -22 3 -40 11 -40 16 0 6 -11 10 -25 10 -14 0 -28 7 -31 15
-4 8 -15 15 -25 15 -10 0 -19 7 -19 15 0 8 -7 15 -16 15 -22 0 -87 67 -79 80
3 6 -1 10 -10 10 -8 0 -21 12 -28 28 -6 15 -16 30 -21 33 -5 4 -5 12 -2 18 4
6 2 11 -3 11 -6 0 -11 9 -11 19 0 11 -5 21 -12 23 -8 3 -12 29 -12 71 -1 44
-5 68 -13 72 -7 2 -13 18 -13 34 0 24 3 29 18 25 11 -4 13 -3 5 3 -9 6 -9 27
-2 83 6 41 14 77 18 80 4 3 11 18 15 33 4 19 12 27 20 24 9 -4 12 0 9 13 -3
12 3 22 16 30 12 6 19 15 16 19 -7 12 72 92 87 89 7 -2 12 3 10 10 -1 8 11 19
28 25 16 6 30 15 30 18 0 4 15 11 33 14 17 4 37 11 42 15 19 15 60 18 196 17
83 -2 142 -7 150 -14z"/>
<path d="M1973 1904 c-13 -3 -23 -9 -23 -14 0 -5 -9 -12 -20 -15 -29 -9 -81
-64 -105 -110 -16 -31 -20 -58 -20 -132 0 -58 4 -96 11 -101 6 -4 14 -16 18
-28 3 -11 22 -38 41 -60 19 -21 35 -42 35 -45 0 -4 18 -9 41 -13 26 -4 39 -11
36 -19 -3 -9 12 -11 59 -9 35 2 64 8 64 14 0 6 11 8 25 6 15 -3 22 -1 18 5 -4
6 2 8 14 5 15 -4 20 -1 19 11 -1 9 8 17 21 19 12 2 26 15 32 30 6 15 19 41 28
57 9 17 20 38 25 47 11 24 10 165 -1 173 -5 3 -12 19 -16 35 -4 17 -11 30 -16
30 -6 0 -9 8 -7 17 2 10 -3 18 -12 18 -9 0 -14 8 -12 19 2 11 -1 15 -7 11 -6
-3 -11 -2 -11 3 0 6 -12 13 -27 17 -15 3 -31 11 -34 17 -7 11 -138 20 -176 12z"/>
<path d="M5510 1910 c-59 -11 -152 -78 -165 -121 -4 -13 -11 -26 -15 -29 -4
-3 -11 -20 -15 -37 -5 -26 -3 -33 9 -33 9 0 16 5 16 10 0 6 7 10 16 10 14 0
74 24 131 52 11 6 27 7 34 3 8 -5 10 -4 5 3 -5 8 1 12 14 12 12 0 28 7 36 15
9 8 24 15 35 15 10 0 19 5 19 10 0 6 11 10 24 10 31 0 50 22 34 38 -7 7 -20
12 -29 12 -10 0 -19 4 -21 10 -5 14 -87 27 -128 20z"/>
</g>
</svg>
